<svg width="20" height="20" viewBox="0 0 20 20" fill="none" xmlns="http://www.w3.org/2000/svg">
  <path fill-rule="evenodd" clip-rule="evenodd"
    d="M10.4419 2.05806C10.686 2.30214 10.686 2.69786 10.4419 2.94194L3.38388 10L10.4419 17.0581C10.686 17.3021 10.686 17.6979 10.4419 17.9419C10.1979 18.186 9.80214 18.186 9.55806 17.9419L2.05806 10.4419C1.81398 10.1979 1.81398 9.80214 2.05806 9.55806L9.55806 2.05806C9.80214 1.81398 10.1979 1.81398 10.4419 2.05806Z"
    fill="#232323" />
  <path fill-rule="evenodd" clip-rule="evenodd"
    d="M15.4419 2.05806C15.686 2.30214 15.686 2.69786 15.4419 2.94194L8.38388 10L15.4419 17.0581C15.686 17.3021 15.686 17.6979 15.4419 17.9419C15.1979 18.186 14.8021 18.186 14.5581 17.9419L7.05806 10.4419C6.81398 10.1979 6.81398 9.80214 7.05806 9.55806L14.5581 2.05806C14.8021 1.81398 15.1979 1.81398 15.4419 2.05806Z"
    fill="#232323" />
</svg>